<?xml version="1.0" encoding="UTF-8" standalone="no"?>
<svg
   xmlns:dc="http://purl.org/dc/elements/1.1/"
   xmlns:cc="http://creativecommons.org/ns#"
   xmlns:rdf="http://www.w3.org/1999/02/22-rdf-syntax-ns#"
   xmlns:svg="http://www.w3.org/2000/svg"
   xmlns="http://www.w3.org/2000/svg"
   version="1.1"
   id="Layer_1"
   x="0px"
   y="0px"
   viewBox="0 0 248 35.000001"
   xml:space="preserve"
   width="248"
   height="35"><metadata
   id="metadata50"><rdf:RDF><cc:Work
       rdf:about=""><dc:format>image/svg+xml</dc:format><dc:type
         rdf:resource="http://purl.org/dc/dcmitype/StillImage" /><dc:title></dc:title></cc:Work></rdf:RDF></metadata><defs
   id="defs48" />
<g
   id="g43"
   transform="matrix(0.72578285,0,0,0.73684211,-10.306116,-12.452632)">
	<g
   id="g41">
		<path
   d="m 142.5,17.7 c 5.9,12.3 12.1,23.7 18.7,35.9 2.6,-5.1 13,-23.9 19.4,-35.9 h 0.8 c 2,16.7 3.3,30.9 5.4,45.8 -1.1,-0.2 -2,-0.3 -3.1,-0.3 -1.1,0 -2,0.1 -3.1,0.3 -0.9,-11.7 -1.8,-22.5 -3.2,-33.6 h -0.1 c -5.9,10.9 -11.9,21.6 -17.1,33.3 h -0.6 c -5.1,-10.8 -11.1,-22 -16.8,-33.3 h -0.1 c -1.2,10.8 -3.1,26.3 -3.1,33.6 -0.8,-0.2 -1.5,-0.3 -2.3,-0.3 -0.8,0 -1.5,0.1 -2.3,0.3 2.3,-14.4 4.9,-32 6.3,-45.8 z m 50.3,17.7 c 0,-5.6 -0.3,-11.3 -0.5,-16.9 1.1,0.2 2.2,0.3 3.2,0.3 1.1,0 2.1,-0.1 3.2,-0.3 -0.3,5.6 -0.5,11.3 -0.5,16.9 v 11.2 c 0,5.6 0.3,11.3 0.5,16.9 -1.1,-0.2 -2.1,-0.3 -3.2,-0.3 -1,0 -2.1,0.1 -3.2,0.3 0.3,-5.6 0.5,-11.3 0.5,-16.9 z m 50.4,29 c -9.9,-11.7 -21.8,-24.2 -32.9,-36.1 -0.1,2.4 -0.2,6.3 -0.2,13.3 0,5.6 0.3,19.4 0.6,22 -0.7,-0.2 -1.5,-0.3 -2.3,-0.3 -0.8,0 -1.5,0.1 -2.4,0.3 0.5,-3.1 1.4,-19.8 1.4,-28.4 0,-8.2 0,-14.5 -0.2,-17.5 h 1 c 10.6,11.5 25,27.3 33,35.3 0,-11.7 0,-24.4 -0.5,-34.4 0.7,0.2 1.5,0.3 2.2,0.3 0.7,0 1.4,-0.1 2.1,-0.3 -0.4,3.8 -1,16.7 -1,21.8 0,6.7 0.1,21.1 0.2,24 z m 9.2,-29 c 0,-5.6 -0.3,-11.3 -0.5,-16.9 1.1,0.2 2.2,0.3 3.2,0.3 1.1,0 2.1,-0.1 3.2,-0.3 -0.3,5.6 -0.5,11.3 -0.5,16.9 v 11.2 c 0,5.6 0.3,11.3 0.5,16.9 -1.1,-0.2 -2.2,-0.3 -3.2,-0.3 -1,0 -2.1,0.1 -3.2,0.3 0.3,-5.6 0.5,-11.3 0.5,-16.9 z m 101.6,29 c -9.9,-11.7 -21.8,-24.2 -32.9,-36.1 -0.1,2.4 -0.2,6.3 -0.2,13.3 0,5.6 0.3,19.4 0.6,22 -0.7,-0.2 -1.5,-0.3 -2.3,-0.3 -0.8,0 -1.6,0.1 -2.4,0.3 0.5,-3.1 1.4,-19.8 1.4,-28.4 0,-8.2 0,-14.5 -0.2,-17.5 h 1.1 c 10.6,11.5 25,27.3 33,35.3 0,-11.7 0,-24.4 -0.5,-34.4 0.7,0.2 1.5,0.3 2.2,0.3 0.7,0 1.4,-0.1 2.1,-0.3 -0.4,3.8 -1.1,16.7 -1.1,21.8 0,6.7 0.1,21.1 0.2,24 z"
   id="path31" />
		<path
   d="m 108.7,16.9 c 14.4,0 24.5,8.6 24.5,23.3 0,14.8 -10.1,23.3 -24.5,23.3 -14.3,0 -24.4,-8.5 -24.4,-23.3 0,-14.8 10,-23.3 24.4,-23.3 z m 0,2.4 c -10.2,0 -18,6.5 -18,20.9 0,14.5 7.8,20.9 18,20.9 10.2,0 18.1,-6.4 18.1,-20.9 -0.1,-14.4 -7.9,-20.9 -18.1,-20.9 z"
   id="path33" />
		<path
   d="m 287.5,16.9 c 14.4,0 24.5,8.6 24.5,23.3 0,14.8 -10.1,23.3 -24.5,23.3 -14.3,0 -24.4,-8.5 -24.4,-23.3 0,-14.8 10.1,-23.3 24.4,-23.3 z m 0,2.4 c -10.2,0 -18,6.5 -18,20.9 0,14.5 7.8,20.9 18,20.9 10.2,0 18.1,-6.4 18.1,-20.9 0,-14.4 -7.9,-20.9 -18.1,-20.9 z"
   id="path35" />
		<g
   id="g39">
			<path
   d="M 78.9,33.7 C 78.3,31.5 77.3,29.4 76,27.5 73.1,23.3 68.5,20.1 63.6,18.8 61,18.1 58.1,17.7 55.4,17.7 H 42.3 L 48,28.8 v -9.3 c 0,0 -0.4,0 0.7,0 4.8,0 11.8,-0.3 15.9,2.5 3.4,2.3 5.3,5.9 6.2,9.8 0.7,2.8 1,5.8 1,9.2 0,4.8 -0.7,9.7 -3.1,14 -1.8,3.1 -4.4,5.2 -8,5.5 -0.9,0.1 -1.4,0.1 -1.6,0 L 58.4,59.1 37.1,17.7 14.2,63.2 H 47.8 L 42.1,52 v 8.5 H 18.6 l 16.3,-32.3 17.5,33.7 0.7,1.3 h 7.5 c 0.1,0 0.1,0 0.2,0 2.2,0 4.2,-0.5 5.3,-0.9 2.1,-0.7 3.3,-1.4 4.9,-2.8 1.6,-1.3 3.2,-2.9 4.4,-4.6 1.3,-1.7 2.6,-4.3 3.3,-6.6 0.7,-2.2 1.1,-4.8 1.1,-7.6 0,-2.4 -0.3,-4.7 -0.9,-7 z"
   id="path37" />
		</g>
	</g>
</g>
</svg>
