<svg width="273" height="98" viewBox="0 0 273 98" fill="none" xmlns="http://www.w3.org/2000/svg">
<path d="M19.4441 0C20.2384 0 20.9218 0.266445 21.5056 0.847444C22.0856 1.42844 22.3516 2.11676 22.3516 2.91239V12.0159C22.3516 12.9152 22.0856 13.6553 21.5056 14.24C20.9255 14.821 20.2384 15.0875 19.4441 15.0875H17.7003V63.0883C17.7003 64.0949 17.3308 64.9423 16.5919 65.6824C15.853 66.4226 14.9553 66.7926 14.0021 66.7926H3.69818C2.69328 66.7926 1.84724 66.4226 1.10834 65.6824C0.369448 64.9423 0 64.0431 0 63.0883V3.70433C0 2.69776 0.369448 1.85401 1.10834 1.11019C1.84724 0.366362 2.745 0 3.69818 0H19.4441Z" fill="black"/>
<path d="M33.6013 51.5978V15.2429C33.6013 14.3436 33.9707 13.4444 34.6579 12.5451L46.0184 1.06208C46.7056 0.370063 47.6034 0 48.7117 0H82.3648C83.2625 0 84.1603 0.370063 85.058 1.05838L96.6809 12.8079C97.3681 13.7071 97.7375 14.6064 97.7375 15.5056V22.596C97.7375 23.6026 97.368 24.45 96.6292 25.1902C95.8903 25.9303 94.9925 26.3004 94.0393 26.3004H83.7354C82.7305 26.3004 81.8845 25.9303 81.1456 25.1902C80.4067 24.45 80.0372 23.5508 80.0372 22.596V21.2712C80.0372 20.372 79.6678 19.4727 78.9806 18.5734L76.4462 16.1902C75.8107 15.5019 74.9684 15.1319 73.9118 15.1319H57.6376C56.581 15.1319 55.6832 15.5019 54.9443 16.1902L52.5651 18.5734C51.8779 19.2618 51.5084 20.161 51.5084 21.2712V45.6139C51.5084 46.6723 51.8779 47.5716 52.5651 48.3117L54.9443 50.6949C55.7386 51.4905 56.6364 51.9124 57.6376 51.9124H73.9118C74.9684 51.9124 75.8144 51.4905 76.4462 50.6949L78.9806 48.3117C79.6678 47.4124 80.0372 46.5132 80.0372 45.6139V44.2891C80.0372 43.2825 80.4067 42.4351 81.1456 41.695C81.8845 40.9548 82.7822 40.5848 83.7354 40.5848H94.0393C95.0442 40.5848 95.8903 40.9548 96.6292 41.695C97.368 42.4351 97.7375 43.3343 97.7375 44.2891V51.3795C97.7375 52.4379 97.3681 53.3371 96.6809 54.0773L85.058 65.8268C84.1603 66.5151 83.2625 66.8851 82.3648 66.8851H48.6563C47.5997 66.8851 46.7019 66.5151 45.963 65.8268L34.6025 54.3437C33.919 53.5555 33.6013 52.6562 33.6013 51.5978Z" fill="black"/>
<path d="M172.817 51.8608C174.771 51.8608 175.776 52.8674 175.776 54.825V63.9286C175.776 64.7242 175.51 65.4088 174.982 65.9935C174.453 66.5745 173.714 66.8409 172.868 66.8409H157.81C157.071 66.8409 156.487 66.5745 155.959 66.0453C155.43 65.5161 155.164 64.8796 155.164 64.1913V63.503C155.164 62.7073 154.898 62.0745 154.426 61.5453C153.949 61.068 153.317 60.8052 152.63 60.8052C151.891 60.8052 151.307 61.0717 150.779 61.6009L146.131 66.1526C145.496 66.5745 144.864 66.8409 144.281 66.8409H120.928C120.241 66.8409 119.661 66.5745 119.184 66.0453L108.193 55.1951C107.665 54.7732 107.399 54.1885 107.399 53.4484V40.2186C107.399 39.5303 107.665 38.8938 108.193 38.3646L119.025 27.6735C119.446 27.1443 120.03 26.8779 120.769 26.8779H151.041C151.729 26.8779 152.364 26.6114 152.837 26.0822C153.314 25.5531 153.576 24.9166 153.576 24.2282V19.5802C153.576 18.9437 153.365 18.3109 152.889 17.7262L150.195 15.0285C149.56 14.6066 148.928 14.3402 148.344 14.3402H130.434C129.639 14.3402 129.008 14.6066 128.583 15.1358L126.048 17.6744C125.627 18.0963 125.361 18.7328 125.361 19.5284C125.361 20.2168 125.095 20.8533 124.515 21.3825C123.935 21.9116 123.3 22.1781 122.561 22.1781H110.568C109.881 22.1781 109.246 21.9116 108.717 21.3825C108.189 20.8533 107.923 20.2168 107.923 19.5284V15.665C107.923 14.7657 108.185 14.1292 108.717 13.811L121.556 0.843975C121.977 0.314785 122.612 0.0483398 123.407 0.0483398H155.582C156.269 0.0483398 156.905 0.314785 157.433 0.843975L170.271 13.811C170.8 14.181 171.066 14.8175 171.066 15.665V51.9163H172.809V51.8608H172.817ZM153.583 42.761V42.0727C153.583 41.3843 153.317 40.7478 152.844 40.2186C152.368 39.6895 151.736 39.423 151.049 39.423H129.547C128.86 39.423 128.224 39.6895 127.696 40.2186L125.583 42.3354C125.054 42.8646 124.788 43.4456 124.788 44.0821V48.6339C124.788 49.3222 125.054 49.9587 125.583 50.4879L127.434 52.3419C127.962 52.8711 128.597 53.1375 129.285 53.1375H142.917C143.604 53.1375 144.24 52.8711 144.768 52.3419L152.8 44.5632C153.321 44.0821 153.583 43.5011 153.583 42.761Z" fill="black"/>
<path d="M269.409 4.07439C267.019 1.48025 263.971 0.210938 260.491 0.210938H214.975H205.62C202.084 0.210938 198.985 1.48025 196.321 4.07439L185.607 14.4473C182.943 17.0414 181.635 19.8465 181.635 22.8625V44.8257C181.635 48.3191 182.94 51.2833 185.607 53.8737L194.906 62.9218C197.57 65.5159 200.669 66.7852 204.205 66.7852H214.864H219.866C223.402 66.7852 226.501 65.5159 229.165 62.9218L269.028 25.4011C271.692 22.807 273 19.791 273 16.3531V13.1261C273.055 9.73635 271.858 6.66853 269.409 4.07439Z" fill="#F4A500"/>
<path d="M81.5003 78.105H86.0186V97.6628H81.5003V78.105Z" fill="#818181"/>
<path d="M108.559 78.105V97.6628H104.849L95.1144 85.7875V97.6628H90.6515V78.105H94.3903L104.099 89.9803V78.105H108.559Z" fill="#818181"/>
<path d="M131.849 78.105L123.396 97.6628H118.933L110.509 78.105H115.39L121.33 92.0748L127.356 78.105H131.849Z" fill="#818181"/>
<path d="M148.588 94.0327V97.6667H133.471V78.1089H148.226V81.7429H137.959V85.9912H147.026V89.5105H137.959V94.0364H148.588V94.0327Z" fill="#818181"/>
<path d="M154.126 97.3706C152.685 96.9524 151.525 96.4084 150.654 95.7349L152.187 92.3266C153.025 92.9409 154.019 93.4368 155.172 93.8069C156.325 94.1806 157.477 94.3657 158.63 94.3657C159.912 94.3657 160.861 94.1732 161.475 93.7921C162.088 93.4109 162.395 92.9039 162.395 92.2674C162.395 91.8011 162.214 91.4163 161.851 91.1091C161.489 90.8019 161.024 90.554 160.455 90.369C159.886 90.1839 159.121 89.9767 158.153 89.7547C156.664 89.3994 155.449 89.0479 154.499 88.6926C153.55 88.3373 152.737 87.7711 152.057 86.9866C151.378 86.2058 151.038 85.1622 151.038 83.8559C151.038 82.7198 151.344 81.691 151.958 80.7696C152.571 79.8481 153.498 79.1154 154.732 78.5751C155.97 78.0348 157.481 77.7646 159.265 77.7646C160.51 77.7646 161.73 77.9127 162.919 78.2124C164.109 78.5122 165.151 78.9377 166.045 79.4965L164.648 82.9344C162.845 81.9093 161.039 81.3987 159.236 81.3987C157.972 81.3987 157.038 81.6059 156.432 82.013C155.826 82.4237 155.527 82.964 155.527 83.6338C155.527 84.3037 155.874 84.8032 156.572 85.1289C157.27 85.4545 158.334 85.7765 159.768 86.0911C161.257 86.4463 162.472 86.7979 163.422 87.1531C164.371 87.5084 165.184 88.0672 165.864 88.8295C166.544 89.5955 166.883 90.628 166.883 91.9306C166.883 93.0482 166.573 94.0696 165.949 94.9911C165.324 95.9125 164.39 96.6452 163.145 97.1855C161.9 97.7258 160.381 97.996 158.597 97.996C157.056 97.9997 155.567 97.7924 154.126 97.3706Z" fill="#818181"/>
<path d="M173.748 81.7945H167.5V78.105H184.517V81.7945H178.27V97.6665H173.751V81.7945H173.748Z" fill="#818181"/>
</svg>
