<svg xmlns="http://www.w3.org/2000/svg" width="165" height="51" viewBox="0 0 165 51" fill="none"><path d="M50.4333 26.173C49.2878 28.0031 48.7178 29.876 48.7178 31.792C48.7178 33.8798 49.4739 35.7814 50.9918 37.4969C51.8223 38.4677 52.8705 39.2266 54.1449 39.7708C55.4165 40.3149 56.8112 40.587 58.3262 40.587C59.8412 40.587 61.2015 40.3006 62.4015 39.7278C64.8043 38.5536 66.0043 36.6405 66.0043 33.98C66.0043 32.9776 65.6663 31.9209 64.9962 30.8068C64.3232 29.6928 63.3151 28.6904 61.9719 27.8026L54.6804 22.9111C51.8481 21.1383 50.4333 18.8501 50.4333 16.0463C50.4333 15.7599 50.4476 15.4736 50.4763 15.1872C50.6481 12.9848 51.5273 11.192 53.1139 9.80306C54.7005 8.41694 56.8255 7.72388 59.4832 7.72388C61.1127 7.72388 63.086 7.86707 65.4028 8.15346H68.0634L67.5049 14.4597H67.1183C67.0897 12.9734 66.5169 11.7791 65.4028 10.877C64.2888 9.97489 62.8139 9.52526 60.9839 9.52526C58.7529 9.52526 57.1377 10.1983 56.1353 11.5414C55.6484 12.2288 55.405 12.9734 55.405 13.7724C55.405 14.5714 55.6484 15.253 56.1353 15.8115C56.6222 16.37 57.3926 16.9771 58.4522 17.6358L66.4739 22.8681C68.1035 23.9278 69.3751 25.1707 70.2915 26.5998C71.3769 28.2866 71.9211 30.0164 71.9211 31.7891C71.9211 32.9347 71.6862 34.1404 71.2137 35.4148C70.7411 36.6864 69.9707 37.8663 68.8968 38.9546C67.8228 40.04 66.4453 40.9278 64.7556 41.6151C63.0688 42.3025 61.2015 42.6461 59.1567 42.6461C57.1119 42.6461 55.259 42.2881 53.6008 41.5722C50.5393 40.2863 48.5947 38.041 47.767 34.8363C47.5952 34.149 47.5093 33.4359 47.5093 32.6912C47.5093 30.2884 48.3513 28.0145 50.041 25.8695L50.4276 26.1702L50.4333 26.173Z" fill="#CCAA76"></path><path d="M87.9787 38.0753C88.4656 38.0753 88.8407 37.955 89.1013 37.7116C89.5309 37.282 89.7572 36.8238 89.7744 36.337V29.1772H80.6758V36.3083C80.6758 36.7952 80.8534 37.2104 81.2085 37.557C81.5636 37.9035 81.9846 38.0753 82.4715 38.0753H82.8094L82.838 38.356H74.3008V38.0753H74.6645C75.1514 38.0753 75.5666 37.9035 75.9132 37.557C76.2597 37.2104 76.443 36.7952 76.4602 36.3083V20.723C76.4401 20.2362 76.2597 19.8238 75.9132 19.4887C75.5666 19.1508 75.1514 18.9847 74.6645 18.9847H74.3008V18.704H82.838L82.8094 18.9847H82.4715C81.9846 18.9847 81.5636 19.1536 81.2085 19.4887C80.8534 19.8266 80.6758 20.239 80.6758 20.723V27.9658H89.7744V20.723C89.7543 20.2362 89.5739 19.8238 89.2274 19.4887C88.8808 19.1508 88.4656 18.9847 87.9787 18.9847H87.615V18.704H96.1522V18.9847H95.7857C95.2988 18.9847 94.8778 19.1594 94.5227 19.503C94.1676 19.8496 93.99 20.2648 93.99 20.7517V36.3083C93.99 36.7952 94.1676 37.2104 94.5227 37.557C94.8778 37.9035 95.2988 38.0753 95.7857 38.0753H96.1522V38.356H87.615V38.0753H87.9787Z" fill="#CCAA76"></path><path d="M98.8474 38.0753C99.3342 38.0753 99.7495 37.9035 100.096 37.557C100.443 37.2104 100.626 36.7952 100.643 36.3083V20.723C100.623 20.2362 100.443 19.8238 100.096 19.4887C99.7495 19.1508 99.3342 18.9847 98.8474 18.9847H98.4836V18.704H107.021L106.992 18.9847H106.654C106.167 18.9847 105.746 19.1536 105.391 19.4887C105.036 19.8266 104.859 20.239 104.859 20.723V36.3083C104.859 36.7952 105.036 37.2104 105.391 37.557C105.746 37.9035 106.167 38.0753 106.654 38.0753H106.992L107.021 38.356H98.4836V38.0753H98.8474Z" fill="#CCAA76"></path><path d="M109.684 38.0753C110.171 38.0753 110.586 37.9035 110.933 37.557C111.279 37.2104 111.462 36.7952 111.48 36.3083V20.6686C111.422 20.0128 111.116 19.5259 110.552 19.208C110.271 19.0591 109.982 18.9847 109.681 18.9847H109.317V18.704H120.071C120.653 18.704 121.288 18.6467 121.981 18.535C122.675 18.4233 123.161 18.3088 123.442 18.1971V23.1115H123.161V22.7736C123.161 21.9316 122.912 21.2529 122.417 20.7374C121.921 20.2219 121.251 19.9469 120.409 19.9097H115.692V28.0804H119.398C120.091 28.0632 120.661 27.8226 121.111 27.3644C121.561 26.9062 121.784 26.3391 121.784 25.6661V25.4141H122.065V31.9008H121.784V31.6774C121.784 30.7409 121.409 30.0479 120.661 29.6011C120.286 29.3949 119.874 29.2832 119.427 29.2632H115.692V37.1532H119.37C120.736 37.1532 121.884 36.7608 122.809 35.9732C123.734 35.1857 124.424 34.0745 124.874 32.6311H125.155L123.863 38.3589H109.317V38.0782H109.681L109.684 38.0753Z" fill="#CCAA76"></path><path d="M127.291 38.0753C127.778 38.0753 128.194 37.9035 128.54 37.557C128.887 37.2104 129.07 36.7952 129.087 36.3083V20.7517C129.067 20.2648 128.887 19.8496 128.54 19.503C128.194 19.1565 127.778 18.9847 127.291 18.9847H126.928V18.704H135.465L135.436 18.9847H135.098C134.612 18.9847 134.191 19.1594 133.835 19.503C133.48 19.8496 133.303 20.2648 133.303 20.7517V37.1503H136.98C138.346 37.1503 139.494 36.7579 140.42 35.9704C141.345 35.1828 142.035 34.0716 142.484 32.6282H142.765L141.473 38.356H126.928V38.0753H127.291Z" fill="#CCAA76"></path><path d="M162.107 21.3388C164.035 23.1001 165 25.4943 165 28.5271C165 31.56 164.035 33.9571 162.107 35.7155C160.18 37.4739 157.56 38.356 154.246 38.356H144.053V38.0753H144.417C144.904 38.0753 145.319 37.9035 145.666 37.557C146.012 37.2104 146.196 36.7952 146.213 36.3083V20.5827C146.155 20.1331 145.961 19.7551 145.623 19.4458C145.285 19.1365 144.884 18.9818 144.414 18.9818H144.051V18.7011H154.243C157.557 18.7011 160.177 19.5804 162.104 21.3416L162.107 21.3388ZM153.879 37.1761C155.228 37.1761 156.394 36.8238 157.376 36.1222C158.359 35.4205 159.112 34.4182 159.636 33.118C160.16 31.8177 160.423 30.2856 160.423 28.5271C160.423 25.8695 159.839 23.7645 158.668 22.2094C157.497 20.6572 155.901 19.8782 153.879 19.8782H150.426V37.1761H153.879Z" fill="#CCAA76"></path><path d="M21.2529 50.5762H21.0324C21.0038 50.5676 20.9751 50.5533 20.9436 50.5476C20.6658 50.5017 20.4052 50.4044 20.1503 50.2869C18.3289 49.4421 16.622 48.4025 14.9953 47.2283C14.1104 46.5897 13.3028 45.8536 12.4178 45.215C12.3147 45.1405 12.2288 45.0432 12.1257 44.9658C11.152 44.2441 10.2441 43.4451 9.39928 42.5774C8.20504 41.3459 7.15972 39.997 6.23755 38.5536C4.9488 36.5374 3.92639 34.3924 3.10159 32.1528C1.92167 28.9452 1.15128 25.6403 0.733155 22.2523C0.612872 21.27 0.544139 20.282 0.521228 19.2939C0.498316 18.3174 0.461086 17.3436 0.429583 16.3671C0.386625 15.1499 0.343666 13.9299 0.300708 12.7127C0.25775 11.5643 0.214792 10.4159 0.171833 9.26461C0.14033 8.37967 0.108828 7.4976 0.077325 6.61265C0.0658694 6.27758 0.0486861 5.94537 0.0315028 5.61029C0.0315028 5.56734 0.0114555 5.52438 0 5.48142V5.12343C0.0171833 5.05756 0.0400944 4.99456 0.0544139 4.92869C0.0887805 4.75685 0.177561 4.63371 0.340803 4.5707C0.452494 4.52774 0.564186 4.48765 0.678741 4.46474C1.31739 4.33014 1.9589 4.20126 2.60041 4.06952C3.86338 3.80891 5.12636 3.54543 6.38933 3.28482C7.8986 2.97552 9.41074 2.66908 10.92 2.36551C12.077 2.13353 13.2369 1.91588 14.3939 1.68677C15.6683 1.43475 16.9399 1.17986 18.2143 0.927837C19.0305 0.767459 19.8496 0.615673 20.6687 0.461023C20.7603 0.44384 20.8548 0.432385 20.9493 0.420929C21.124 0.420929 21.2987 0.420929 21.4706 0.420929C21.545 0.435248 21.6224 0.446704 21.6968 0.461023C23.335 0.778915 24.976 1.09681 26.6141 1.42043C28.3725 1.76982 30.131 2.12494 31.8894 2.48006C33.6335 2.83232 35.3776 3.18458 37.1217 3.53684C38.5966 3.83468 40.0715 4.13826 41.5607 4.3645C41.7068 4.38741 41.8557 4.43324 41.9903 4.49338C42.1679 4.57357 42.2653 4.72822 42.2853 4.92582C42.2882 4.95733 42.3025 4.98597 42.3111 5.01461V5.45564C42.3025 5.50433 42.291 5.55302 42.2882 5.6017C42.2738 6.18021 42.2653 6.75585 42.2509 7.33435C42.208 8.95531 42.165 10.5763 42.1192 12.1972C42.0848 13.4803 42.0476 14.7604 42.0104 16.0434C41.9903 16.7107 41.9731 17.3809 41.9445 18.0482C41.8929 19.3197 41.8385 20.5942 41.787 21.8657C41.7612 22.4528 41.724 23.037 41.6467 23.6184C41.5121 24.6408 41.303 25.6489 41.0309 26.6455C40.6157 28.172 40.1116 29.6669 39.556 31.1476C38.9661 32.7227 38.3102 34.2692 37.537 35.7642C35.621 39.47 33.0349 42.6461 29.8904 45.3754C27.5792 47.3801 25.0161 48.9839 22.2324 50.2497C21.9259 50.3872 21.6195 50.5189 21.2844 50.5619C21.273 50.5619 21.2586 50.5733 21.2472 50.5791L21.2529 50.5762ZM10.6021 15.4964C10.353 15.6912 10.121 15.8745 9.88328 16.0549C9.04702 16.6935 8.24513 17.3637 7.5177 18.1255C6.77023 18.9073 6.1144 19.7579 5.5989 20.7116C5.55594 20.7946 5.53876 20.8691 5.56167 20.9579C5.75641 21.7855 5.93397 22.6189 6.14877 23.4437C6.71295 25.6031 7.44611 27.708 8.28809 29.7758C9.14439 31.8807 10.0895 33.9456 11.1835 35.9389C11.2494 36.062 11.3353 36.1451 11.4613 36.2052C12.2775 36.5947 13.1195 36.9126 13.9786 37.1847C14.0875 37.219 14.1992 37.2419 14.3137 37.2534C14.4798 37.2706 14.6459 37.2734 14.8349 37.2849C14.7977 37.2276 14.7748 37.1904 14.7519 37.1531C14.4139 36.6348 14.0646 36.125 13.7409 35.5981C13.1767 34.6845 12.6927 33.7308 12.3348 32.7141C11.9539 31.6344 11.7505 30.5204 11.7477 29.3748C11.7477 29.3433 11.7534 29.3118 11.7563 29.2803C12.0026 29.8101 12.2488 30.3314 12.4235 30.8812C12.5181 31.1819 12.624 31.4798 12.7443 31.7719C13.3915 33.347 14.3653 34.6988 15.5853 35.8759C16.2783 36.546 17.0144 37.1646 17.7819 37.7488C18.8243 38.5421 19.8782 39.3211 20.9293 40.103C21.5851 40.5898 22.2295 41.0881 22.8051 41.6695C23.6213 42.4943 24.2314 43.4451 24.5292 44.5763C24.5349 44.5964 24.5464 44.6164 24.5636 44.6508C24.6924 44.4475 24.8242 44.2585 24.8843 44.0351C24.9788 43.6857 25.0819 43.3391 25.1707 42.9898C25.4657 41.8327 25.6633 40.6614 25.7263 39.4672C25.7779 38.4906 25.7435 37.5169 25.6032 36.546C25.4657 35.6009 25.2366 34.6788 24.8929 33.7852C24.3259 32.316 23.5011 31.0044 22.493 29.8016C21.946 29.1486 21.3417 28.5443 20.7489 27.9314C20.2992 27.4675 19.8467 27.0064 19.4429 26.5024C18.6811 25.5515 18.2573 24.469 18.18 23.2518C18.137 22.5416 18.2143 21.8428 18.3718 21.1526C18.3776 21.1297 18.3919 21.1097 18.4148 21.0667C18.4148 21.1182 18.4177 21.1412 18.4205 21.1612C18.4463 21.5994 18.4606 22.0404 18.5064 22.4757C18.578 23.1602 18.7814 23.8103 19.0935 24.4232C19.6119 25.4341 20.3823 26.216 21.3102 26.8546C21.3675 26.8918 21.4276 26.9233 21.4935 26.9491C21.6539 27.015 21.7741 26.9864 21.8887 26.8546C21.9402 26.7973 21.9861 26.7315 22.0204 26.6627C22.3899 25.9496 22.828 25.2766 23.2404 24.5921C23.2576 24.5664 23.2777 24.5406 23.3006 24.5062L23.524 24.6437C23.3808 24.8671 23.2462 25.079 23.1116 25.2938C22.9111 25.6117 22.7393 25.9439 22.6161 26.3019C22.4128 26.8947 22.3927 27.4847 22.6104 28.0775C22.7765 28.5271 23.0371 28.9195 23.3521 29.2746C23.607 29.561 23.8848 29.8302 24.1483 30.1109C24.4748 30.4574 24.807 30.7982 25.1192 31.159C25.6404 31.7662 26.0471 32.4421 26.2676 33.2182C26.2733 33.2354 26.2848 33.2497 26.2962 33.2669L26.4795 33.2296C26.4795 33.0406 26.4852 32.863 26.4795 32.6855C26.468 32.4535 26.4623 32.2187 26.4222 31.9896C26.3821 31.7547 26.3105 31.5285 26.2418 31.2994C25.9067 30.1567 25.5659 29.0168 25.228 27.877C25.0504 27.2699 24.8958 26.6599 24.8471 26.0241C24.7898 25.2795 24.87 24.552 25.1163 23.8447C25.1736 23.6814 25.2538 23.5239 25.3483 23.3807C25.5144 23.1258 25.7607 22.9798 26.0614 22.9368C26.4194 22.8881 26.7773 22.8423 27.1382 22.8022C27.8341 22.722 28.53 22.6533 29.226 22.5702C30.0078 22.4786 30.7897 22.3784 31.5715 22.2781C32.4765 22.1607 33.3729 22.0089 34.2635 21.8084C34.4697 21.7626 34.6559 21.6767 34.8048 21.5278C34.9795 21.3474 35.1428 21.1526 35.3089 20.9665C35.3146 20.9607 35.3089 20.9435 35.3117 20.9235C35.1456 20.935 34.9881 20.9493 34.8277 20.9521C34.1547 20.9722 33.4932 20.8748 32.8402 20.7202C32.276 20.5856 31.7118 20.4395 31.1505 20.2906C30.9901 20.2476 30.8412 20.2619 30.698 20.3335C30.5605 20.4051 30.4231 20.4825 30.2885 20.5541C30.2283 20.5856 30.1682 20.6142 30.0966 20.6486C30.0937 20.597 30.0909 20.5627 30.088 20.5254C30.0622 20.2419 29.919 20.0472 29.6441 19.9584C29.561 19.9326 29.4751 19.9154 29.3892 19.9068C29.289 19.8982 29.1887 19.9068 29.0742 19.9068L29.1343 19.6949C29.4236 19.7407 29.6985 19.7808 29.9734 19.8266C30.5777 19.9297 31.182 20.0328 31.7863 20.1445C32.4507 20.2705 33.1123 20.4223 33.791 20.471C34.4153 20.5168 35.0253 20.4653 35.621 20.2619C36.1022 20.0987 36.5575 19.8868 36.9384 19.5402C37.5656 18.9703 37.8291 18.2544 37.7289 17.4152C37.6802 17.0086 37.4396 16.7308 37.0472 16.5962C36.9441 16.5618 36.8353 16.5332 36.7265 16.5274C36.5203 16.516 36.3141 16.5188 36.1108 16.5274C35.3747 16.5503 34.6588 16.4444 33.9543 16.2382C33.3586 16.0635 32.7915 15.8229 32.2359 15.5508C31.7662 15.3217 31.2737 15.1757 30.7496 15.1499C30.1252 15.1184 29.5295 15.2473 28.951 15.4707C28.6761 15.5766 28.3954 15.6224 28.1033 15.5709C27.2928 15.4277 26.7315 14.9809 26.4423 14.202C26.4251 14.1561 26.4165 14.1074 26.3993 14.0358C26.5282 14.1103 26.6284 14.1705 26.7315 14.2306C26.9835 14.3738 27.2184 14.537 27.4246 14.7432C27.5306 14.8463 27.6594 14.9351 27.794 15.001C28.1864 15.1986 28.5644 15.1356 28.8794 14.832C28.9625 14.7547 29.0541 14.6974 29.1601 14.663C29.2346 14.6401 29.309 14.6229 29.3835 14.6C29.4608 14.5771 29.5381 14.5514 29.6212 14.5256C29.6155 14.474 29.6126 14.4339 29.6069 14.3938C29.5639 14.1275 29.4522 13.8869 29.3033 13.6635C28.9396 13.128 28.4699 12.7414 27.8169 12.6154C27.4446 12.5438 27.0695 12.475 26.6972 12.4006C26.5311 12.3691 26.3649 12.3376 26.2017 12.2889C26.027 12.2345 25.9697 12.1285 26.0041 11.9509C26.0241 11.8421 26.0556 11.7361 26.0872 11.633C26.1788 11.3209 26.2762 11.0116 26.3621 10.6966C26.4537 10.3615 26.5339 10.0235 26.6198 9.67701L26.4108 9.55959C26.3105 9.63119 26.2132 9.70279 26.1187 9.77152C26.0184 9.84312 25.9182 9.91758 25.8208 9.99204C25.7263 10.0636 25.6289 10.1324 25.5344 10.204C25.437 10.2756 25.3425 10.3443 25.2452 10.4159C25.1449 10.4904 25.0476 10.5648 24.9445 10.6364C24.85 10.7023 24.7669 10.7825 24.6495 10.8398C24.6552 10.8025 24.6552 10.7825 24.6581 10.7653C24.7239 10.3099 24.7268 9.85171 24.6581 9.39635C24.5607 8.75484 24.3287 8.15915 24.0194 7.5921C23.6185 6.85608 23.1116 6.19453 22.6047 5.53297C22.5961 5.52151 22.5789 5.51578 22.5588 5.50147C22.5474 5.54729 22.5359 5.58165 22.5273 5.61602C22.4443 5.94823 22.3784 6.28617 22.2753 6.61265C22.1207 7.09379 21.84 7.50905 21.5336 7.90427C21.3045 8.20211 21.0639 8.49136 20.8376 8.79207C20.2391 9.59396 19.463 10.1496 18.5179 10.4818C17.968 10.6765 17.3981 10.7853 16.8253 10.8884C15.6311 11.1004 14.4712 11.424 13.3486 11.8822C11.573 12.6068 9.9921 13.632 8.62889 14.9867C7.3201 16.284 6.30055 17.7875 5.49866 19.44C5.44425 19.5546 5.41561 19.6806 5.38411 19.8037C5.35547 19.9183 5.39843 20.0242 5.42707 20.1531C5.47575 20.0987 5.50726 20.0643 5.53589 20.03C5.84806 19.6519 6.16022 19.2739 6.46952 18.893C7.08239 18.1427 7.7325 17.4267 8.49715 16.8253C9.13867 16.3212 9.78877 15.8286 10.4331 15.3303C10.4446 15.3217 10.4561 15.3189 10.479 15.3103L10.6164 15.4821L10.6021 15.4964ZM38.5307 20.8605C38.4906 20.8605 38.4677 20.8605 38.4477 20.8605C38.2988 20.8834 38.1899 20.9607 38.0983 21.081C37.683 21.608 37.2219 22.092 36.7064 22.5216C35.8272 23.249 34.8421 23.7645 33.7251 24.0079C32.8459 24.1998 31.9524 24.2828 31.056 24.3487C30.6207 24.3802 30.1882 24.406 29.7529 24.4404C29.1401 24.489 28.53 24.5463 27.92 24.6007C27.7597 24.6151 27.5993 24.6265 27.4418 24.6523C27.1267 24.7038 26.9177 24.8928 26.8776 25.1735C26.8604 25.2852 26.8661 25.4026 26.8833 25.5143C26.9377 25.858 26.9979 26.2016 27.0609 26.5424C27.1668 27.1439 27.3043 27.7338 27.5162 28.3095C27.731 28.8908 27.9114 29.4808 28.0632 30.0793C28.2265 30.7209 28.3439 31.3681 28.3983 32.0268C28.447 32.6082 28.4413 33.1895 28.3783 33.7709C28.3238 34.2749 28.1721 34.736 27.8456 35.1312C27.6537 35.3632 27.5621 35.6296 27.5764 35.9331C27.585 36.0735 27.5964 36.2167 27.6079 36.357C27.6422 36.8496 27.6795 37.345 27.7081 37.8376C27.7339 38.2987 27.7654 38.7627 27.7654 39.2237C27.7654 39.6275 27.7253 40.0285 27.7052 40.4323C27.7052 40.4667 27.7052 40.4982 27.7052 40.5555C27.9172 40.4065 28.1062 40.2719 28.2952 40.1345C28.3324 40.1087 28.3611 40.0714 28.3926 40.0399C28.7849 39.6247 29.1773 39.2066 29.5725 38.7913C30.1768 38.1526 30.7782 37.5083 31.3137 36.8095C34.0688 33.2153 35.7843 29.16 36.6263 24.7239C36.6692 24.5034 36.7064 24.2828 36.7437 24.0623C36.801 23.7272 36.9384 23.4208 37.1131 23.1373C37.5542 22.4242 38.0009 21.7168 38.4477 21.0066C38.4735 20.9636 38.4992 20.9235 38.5336 20.8691L38.5307 20.8605ZM20.6773 4.88C20.6229 4.98024 20.5828 5.07188 20.5255 5.15494C20.3794 5.364 20.2248 5.5702 20.0701 5.7764C19.9613 5.92246 19.8525 6.07138 19.7293 6.20598C19.5231 6.43796 19.2654 6.59547 18.9618 6.65848C18.4463 6.76444 17.9308 6.8704 17.4153 6.96778C16.5218 7.13961 15.6254 7.30572 14.7318 7.47468C13.6837 7.67229 12.6355 7.8699 11.5873 8.06751C10.5849 8.25653 9.5797 8.44268 8.57734 8.62883C7.60649 8.80926 6.63276 8.98968 5.66191 9.17297C5.51871 9.19874 5.37552 9.23598 5.23805 9.28466C5.0834 9.34194 4.98603 9.46509 4.95166 9.62833C4.93448 9.70852 4.92875 9.79157 4.92875 9.87462C4.93161 10.287 4.93734 10.6994 4.9488 11.1118C4.95739 11.4784 4.96598 11.845 4.98889 12.2116C5.02326 12.6927 5.04903 13.171 5.00894 13.6521C4.98889 13.8927 4.96598 14.1361 4.9488 14.3767C4.90584 15.0411 4.92016 15.7055 4.9488 16.3671C4.95166 16.453 4.96312 16.536 4.97171 16.6534C5.0118 16.5933 5.03471 16.5618 5.05763 16.5303C5.24091 16.2554 5.41848 15.9776 5.60749 15.7084C6.7645 14.0731 8.15635 12.6726 9.81741 11.5471C12.1028 10.0006 14.6402 9.13574 17.3523 8.7262C17.5728 8.69184 17.7962 8.65747 18.0167 8.61451C18.1485 8.58874 18.263 8.52573 18.3575 8.42263C19.0305 7.68948 19.6806 6.93914 20.3078 6.16589C20.5999 5.80504 20.7145 5.37259 20.8863 4.9516L20.6744 4.87714L20.6773 4.88ZM27.8169 7.56346L27.8026 7.58924C27.8284 7.62647 27.8542 7.66084 27.8828 7.69807C28.069 7.94723 28.2465 8.20211 28.3869 8.48277C28.573 8.85794 28.6475 9.25316 28.6016 9.66842C28.5816 9.86316 28.553 10.0579 28.5358 10.2555C28.5186 10.4388 28.5931 10.5877 28.7362 10.6966C28.8336 10.771 28.9396 10.8369 29.0427 10.9028C29.2976 11.0631 29.5582 11.2178 29.8102 11.3839C30.0909 11.57 30.3343 11.7963 30.5204 12.0827C30.5949 12.1972 30.6837 12.3032 30.7753 12.4063C31.2708 12.9791 31.9008 13.3542 32.6139 13.5862C33.3843 13.8354 34.169 14.0358 34.9595 14.2191C35.4349 14.3308 35.9132 14.4339 36.3943 14.537C36.7952 14.6229 37.0587 14.4397 37.1188 14.033C37.136 13.9213 37.1418 13.8039 37.1418 13.6922C37.1561 12.4836 37.2019 11.2751 37.2735 10.0665C37.2792 9.97486 37.2821 9.88321 37.2764 9.79157C37.262 9.53095 37.1303 9.35339 36.8783 9.27321C36.8038 9.25029 36.7294 9.23025 36.652 9.21593C36.2912 9.14719 35.9332 9.08132 35.5723 9.01259C34.4497 8.7978 33.3271 8.57728 32.2016 8.36535C30.9472 8.12765 29.6928 7.89568 28.4355 7.66084C28.2293 7.62361 28.0203 7.58924 27.8141 7.55487L27.8169 7.56346ZM12.8274 38.6109L12.8073 38.628C12.8188 38.6481 12.8274 38.6681 12.8388 38.6882C13.2483 39.261 13.6579 39.8366 14.0703 40.4094C14.1018 40.4523 14.1447 40.4896 14.1877 40.5239C14.4913 40.7674 14.7948 41.0108 15.1013 41.2514C15.7399 41.7583 16.3814 42.2652 17.0917 42.6661C17.8363 43.0871 18.5952 43.4852 19.3513 43.8833C19.8124 44.1267 20.2821 44.3558 20.7489 44.5849C20.9952 44.7052 21.2472 44.731 21.5021 44.5964C21.545 44.5735 21.5966 44.5592 21.6424 44.5448C21.8429 44.4904 21.9918 44.5391 22.1063 44.7138C22.1608 44.7969 22.2037 44.8914 22.241 44.983C22.4242 45.467 22.6047 45.951 22.788 46.435C22.8023 46.4751 22.8223 46.5152 22.8395 46.5582L23.0056 46.5238C22.977 46.3691 22.9455 46.2231 22.9226 46.0742C22.7679 45.0202 22.3154 44.1038 21.6481 43.2847C21.25 42.795 20.7918 42.3683 20.2849 41.9931C19.0363 41.0652 17.7819 40.1402 16.5332 39.2123C16.2354 38.9918 15.9261 38.9431 15.5767 39.0691C15.1127 39.2352 14.6402 39.2438 14.1734 39.0977C13.761 38.966 13.3543 38.8085 12.9448 38.6624C12.9018 38.6481 12.8617 38.6309 12.8216 38.6137L12.8274 38.6109Z" fill="#CCAA76"></path></svg>